<svg width="320" height="390" viewBox="0 0 320 390" fill="none" xmlns="http://www.w3.org/2000/svg">
<rect x="0.5" y="0.5" width="319" height="389" fill="#FFFCEE" stroke="black"/>
<path d="M218.721 213.135C219.131 213.135 219.424 213.223 219.6 213.398C219.775 213.574 219.863 213.867 219.863 214.277V221.695C219.863 222.082 219.699 222.363 219.371 222.539C219.055 222.715 218.562 222.803 217.895 222.803C217.25 222.803 216.799 222.721 216.541 222.557C216.295 222.381 216.172 222.094 216.172 221.695V216.914H212.99V230.396H216.787C217.068 230.396 217.285 230.449 217.438 230.555C217.59 230.648 217.701 230.824 217.771 231.082C217.854 231.34 217.895 231.715 217.895 232.207C217.895 232.699 217.854 233.074 217.771 233.332C217.701 233.59 217.59 233.766 217.438 233.859C217.285 233.953 217.068 234 216.787 234H204.799C204.518 234 204.301 233.953 204.148 233.859C203.996 233.766 203.879 233.59 203.797 233.332C203.727 233.074 203.691 232.699 203.691 232.207C203.691 231.715 203.727 231.34 203.797 231.082C203.879 230.824 203.996 230.648 204.148 230.555C204.301 230.449 204.518 230.396 204.799 230.396H208.596V216.914H205.414V221.695C205.414 222.082 205.25 222.363 204.922 222.539C204.605 222.715 204.113 222.803 203.445 222.803C202.801 222.803 202.35 222.721 202.092 222.557C201.846 222.381 201.723 222.094 201.723 221.695V214.277C201.723 213.867 201.811 213.574 201.986 213.398C202.174 213.223 202.467 213.135 202.865 213.135H218.721ZM228.512 210.938C228.91 210.938 229.191 211.025 229.355 211.201C229.531 211.365 229.619 211.646 229.619 212.045V220.588C231.025 218.443 232.725 217.371 234.717 217.371C235.783 217.371 236.715 217.605 237.512 218.074C238.32 218.543 238.941 219.211 239.375 220.078C239.809 220.934 240.025 221.941 240.025 223.102V230.396H241.379C241.66 230.396 241.877 230.449 242.029 230.555C242.182 230.648 242.293 230.824 242.363 231.082C242.445 231.34 242.486 231.715 242.486 232.207C242.486 232.699 242.445 233.074 242.363 233.332C242.293 233.59 242.182 233.766 242.029 233.859C241.877 233.953 241.66 234 241.379 234H234.805C234.523 234 234.307 233.953 234.154 233.859C234.002 233.766 233.885 233.59 233.803 233.332C233.732 233.074 233.697 232.699 233.697 232.207C233.697 231.715 233.732 231.34 233.803 231.082C233.885 230.824 234.002 230.648 234.154 230.555C234.307 230.449 234.523 230.396 234.805 230.396H235.631V224.139C235.631 223.225 235.473 222.533 235.156 222.064C234.84 221.596 234.312 221.361 233.574 221.361C232.895 221.361 232.25 221.648 231.641 222.223C231.031 222.785 230.539 223.541 230.164 224.49C229.801 225.439 229.619 226.453 229.619 227.531V230.396H230.445C230.727 230.396 230.943 230.449 231.096 230.555C231.248 230.648 231.359 230.824 231.43 231.082C231.512 231.34 231.553 231.715 231.553 232.207C231.553 232.699 231.512 233.074 231.43 233.332C231.359 233.59 231.248 233.766 231.096 233.859C230.943 233.953 230.727 234 230.445 234H223.871C223.59 234 223.373 233.953 223.221 233.859C223.068 233.766 222.951 233.59 222.869 233.332C222.799 233.074 222.764 232.699 222.764 232.207C222.764 231.715 222.799 231.34 222.869 231.082C222.951 230.824 223.068 230.648 223.221 230.555C223.373 230.449 223.59 230.396 223.871 230.396H225.225V214.541H223.52C223.238 214.541 223.021 214.494 222.869 214.4C222.717 214.307 222.6 214.131 222.518 213.873C222.447 213.615 222.412 213.24 222.412 212.748C222.412 212.256 222.447 211.881 222.518 211.623C222.6 211.365 222.717 211.189 222.869 211.096C223.021 210.99 223.238 210.938 223.52 210.938H228.512ZM254.211 217.371C255.992 217.371 257.51 217.758 258.764 218.531C260.018 219.293 260.961 220.359 261.594 221.73C262.238 223.09 262.561 224.648 262.561 226.406C262.561 226.805 262.473 227.086 262.297 227.25C262.133 227.414 261.852 227.496 261.453 227.496H250.168C250.391 228.434 250.865 229.154 251.592 229.658C252.33 230.15 253.262 230.396 254.387 230.396C256.203 230.396 258.172 230.074 260.293 229.43C260.434 229.383 260.574 229.359 260.715 229.359C260.973 229.359 261.195 229.477 261.383 229.711C261.57 229.945 261.74 230.344 261.893 230.906C262.01 231.34 262.068 231.709 262.068 232.014C262.068 232.318 261.998 232.559 261.857 232.734C261.729 232.898 261.512 233.033 261.207 233.139C260.035 233.525 258.84 233.83 257.621 234.053C256.402 234.275 255.207 234.387 254.035 234.387C252.254 234.387 250.719 234.023 249.43 233.297C248.141 232.57 247.156 231.568 246.477 230.291C245.809 229.002 245.475 227.531 245.475 225.879C245.475 224.238 245.826 222.773 246.529 221.484C247.232 220.195 248.246 219.188 249.57 218.461C250.895 217.734 252.441 217.371 254.211 217.371ZM254.211 221.361C252.066 221.361 250.742 222.264 250.238 224.068H257.973C257.773 223.213 257.346 222.551 256.689 222.082C256.045 221.602 255.219 221.361 254.211 221.361Z" fill="black"/>
<path d="M176.951 256.135C177.232 256.135 177.449 256.188 177.602 256.293C177.754 256.387 177.865 256.562 177.936 256.82C178.018 257.078 178.059 257.453 178.059 257.945C178.059 258.438 178.018 258.812 177.936 259.07C177.865 259.328 177.754 259.504 177.602 259.598C177.449 259.691 177.232 259.738 176.951 259.738H176.002L176.248 273.396H177.303C177.584 273.396 177.801 273.449 177.953 273.555C178.105 273.648 178.217 273.824 178.287 274.082C178.369 274.34 178.41 274.715 178.41 275.207C178.41 275.699 178.369 276.074 178.287 276.332C178.217 276.59 178.105 276.766 177.953 276.859C177.801 276.953 177.584 277 177.303 277H170.729C170.447 277 170.23 276.953 170.078 276.859C169.926 276.766 169.809 276.59 169.727 276.332C169.656 276.074 169.621 275.699 169.621 275.207C169.621 274.715 169.656 274.34 169.727 274.082C169.809 273.824 169.926 273.648 170.078 273.555C170.23 273.449 170.447 273.396 170.729 273.396H172.346L172.24 262.99L169.586 270.162C169.434 270.572 169.223 270.865 168.953 271.041C168.684 271.205 168.303 271.287 167.811 271.287C167.307 271.287 166.92 271.205 166.65 271.041C166.381 270.865 166.164 270.572 166 270.162L163.328 263.043L163.223 273.396H164.857C165.139 273.396 165.355 273.449 165.508 273.555C165.66 273.648 165.771 273.824 165.842 274.082C165.924 274.34 165.965 274.715 165.965 275.207C165.965 275.699 165.924 276.074 165.842 276.332C165.771 276.59 165.66 276.766 165.508 276.859C165.355 276.953 165.139 277 164.857 277H158.283C158.002 277 157.785 276.953 157.633 276.859C157.48 276.766 157.363 276.59 157.281 276.332C157.211 276.074 157.176 275.699 157.176 275.207C157.176 274.715 157.211 274.34 157.281 274.082C157.363 273.824 157.48 273.648 157.633 273.555C157.785 273.449 158.002 273.396 158.283 273.396H159.32L159.584 259.738H158.635C158.354 259.738 158.137 259.691 157.984 259.598C157.832 259.504 157.715 259.328 157.633 259.07C157.562 258.812 157.527 258.438 157.527 257.945C157.527 257.453 157.562 257.078 157.633 256.82C157.715 256.562 157.832 256.387 157.984 256.293C158.137 256.188 158.354 256.135 158.635 256.135H163.627C163.873 256.135 164.072 256.176 164.225 256.258C164.389 256.34 164.506 256.48 164.576 256.68L167.793 265.311L170.992 256.68C171.062 256.48 171.174 256.34 171.326 256.258C171.49 256.176 171.695 256.135 171.941 256.135H176.951ZM189.379 260.371C191.16 260.371 192.719 260.734 194.055 261.461C195.391 262.188 196.416 263.195 197.131 264.484C197.857 265.773 198.221 267.238 198.221 268.879C198.221 270.52 197.857 271.984 197.131 273.273C196.416 274.562 195.391 275.57 194.055 276.297C192.719 277.023 191.16 277.387 189.379 277.387C187.598 277.387 186.039 277.023 184.703 276.297C183.367 275.57 182.336 274.562 181.609 273.273C180.895 271.984 180.537 270.52 180.537 268.879C180.537 267.238 180.895 265.773 181.609 264.484C182.336 263.195 183.367 262.188 184.703 261.461C186.039 260.734 187.598 260.371 189.379 260.371ZM189.379 264.361C188.535 264.361 187.803 264.549 187.182 264.924C186.561 265.287 186.08 265.809 185.74 266.488C185.412 267.168 185.248 267.965 185.248 268.879C185.248 269.793 185.412 270.59 185.74 271.27C186.08 271.949 186.561 272.477 187.182 272.852C187.803 273.215 188.535 273.396 189.379 273.396C190.223 273.396 190.955 273.215 191.576 272.852C192.197 272.477 192.672 271.949 193 271.27C193.34 270.59 193.51 269.793 193.51 268.879C193.51 267.965 193.34 267.168 193 266.488C192.672 265.809 192.197 265.287 191.576 264.924C190.955 264.549 190.223 264.361 189.379 264.361ZM219.947 260.758C220.229 260.758 220.445 260.811 220.598 260.916C220.75 261.01 220.861 261.186 220.932 261.443C221.014 261.701 221.055 262.076 221.055 262.568C221.055 263.061 221.014 263.436 220.932 263.693C220.861 263.951 220.75 264.127 220.598 264.221C220.445 264.314 220.229 264.361 219.947 264.361H218.752L213.602 276.244C213.426 276.654 213.139 276.947 212.74 277.123C212.342 277.299 211.732 277.387 210.912 277.387C210.092 277.387 209.488 277.299 209.102 277.123C208.715 276.947 208.434 276.654 208.258 276.244L203.143 264.361H201.982C201.701 264.361 201.484 264.314 201.332 264.221C201.18 264.127 201.062 263.951 200.98 263.693C200.91 263.436 200.875 263.061 200.875 262.568C200.875 262.076 200.91 261.701 200.98 261.443C201.062 261.186 201.18 261.01 201.332 260.916C201.484 260.811 201.701 260.758 201.982 260.758H209.084C209.365 260.758 209.582 260.811 209.734 260.916C209.887 261.01 209.998 261.186 210.068 261.443C210.15 261.701 210.191 262.076 210.191 262.568C210.191 263.061 210.15 263.436 210.068 263.693C209.998 263.951 209.887 264.127 209.734 264.221C209.582 264.314 209.365 264.361 209.084 264.361H207.906L211.018 272.113L214.164 264.361H213.197C212.916 264.361 212.699 264.314 212.547 264.221C212.395 264.127 212.277 263.951 212.195 263.693C212.125 263.436 212.09 263.061 212.09 262.568C212.09 262.076 212.125 261.701 212.195 261.443C212.277 261.186 212.395 261.01 212.547 260.916C212.699 260.811 212.916 260.758 213.197 260.758H219.947ZM233.887 260.758C234.285 260.758 234.566 260.846 234.73 261.021C234.906 261.186 234.994 261.467 234.994 261.865V273.396H239.934C240.215 273.396 240.432 273.449 240.584 273.555C240.736 273.648 240.848 273.824 240.918 274.082C241 274.34 241.041 274.715 241.041 275.207C241.041 275.699 241 276.074 240.918 276.332C240.848 276.59 240.736 276.766 240.584 276.859C240.432 276.953 240.215 277 239.934 277H225.801C225.52 277 225.303 276.953 225.15 276.859C224.998 276.766 224.881 276.59 224.799 276.332C224.729 276.074 224.693 275.699 224.693 275.207C224.693 274.715 224.729 274.34 224.799 274.082C224.881 273.824 224.998 273.648 225.15 273.555C225.303 273.449 225.52 273.396 225.801 273.396H230.6V264.361H226.855C226.574 264.361 226.357 264.314 226.205 264.221C226.053 264.127 225.936 263.951 225.854 263.693C225.783 263.436 225.748 263.061 225.748 262.568C225.748 262.076 225.783 261.701 225.854 261.443C225.936 261.186 226.053 261.01 226.205 260.916C226.357 260.811 226.574 260.758 226.855 260.758H233.887ZM232.744 253.041C233.576 253.041 234.156 253.129 234.484 253.305C234.824 253.469 234.994 253.75 234.994 254.148V257.031C234.994 257.43 234.836 257.717 234.52 257.893C234.215 258.057 233.652 258.139 232.832 258.139C232.012 258.139 231.432 258.057 231.092 257.893C230.764 257.717 230.6 257.43 230.6 257.031V254.148C230.6 253.738 230.752 253.451 231.057 253.287C231.361 253.123 231.924 253.041 232.744 253.041ZM254.383 260.371C256.164 260.371 257.682 260.758 258.936 261.531C260.189 262.293 261.133 263.359 261.766 264.73C262.41 266.09 262.732 267.648 262.732 269.406C262.732 269.805 262.645 270.086 262.469 270.25C262.305 270.414 262.023 270.496 261.625 270.496H250.34C250.562 271.434 251.037 272.154 251.764 272.658C252.502 273.15 253.434 273.396 254.559 273.396C256.375 273.396 258.344 273.074 260.465 272.43C260.605 272.383 260.746 272.359 260.887 272.359C261.145 272.359 261.367 272.477 261.555 272.711C261.742 272.945 261.912 273.344 262.064 273.906C262.182 274.34 262.24 274.709 262.24 275.014C262.24 275.318 262.17 275.559 262.029 275.734C261.9 275.898 261.684 276.033 261.379 276.139C260.207 276.525 259.012 276.83 257.793 277.053C256.574 277.275 255.379 277.387 254.207 277.387C252.426 277.387 250.891 277.023 249.602 276.297C248.312 275.57 247.328 274.568 246.648 273.291C245.98 272.002 245.646 270.531 245.646 268.879C245.646 267.238 245.998 265.773 246.701 264.484C247.404 263.195 248.418 262.188 249.742 261.461C251.066 260.734 252.613 260.371 254.383 260.371ZM254.383 264.361C252.238 264.361 250.914 265.264 250.41 267.068H258.145C257.945 266.213 257.518 265.551 256.861 265.082C256.217 264.602 255.391 264.361 254.383 264.361Z" fill="black"/>
<path d="M157.32 321.727C157.503 321.727 157.633 321.766 157.711 321.844C157.789 321.922 157.828 322.052 157.828 322.234V325.531C157.828 325.703 157.755 325.828 157.609 325.906C157.469 325.984 157.25 326.023 156.953 326.023C156.667 326.023 156.466 325.987 156.352 325.914C156.242 325.836 156.188 325.708 156.188 325.531V323.406H154.773V329.398H156.461C156.586 329.398 156.682 329.422 156.75 329.469C156.818 329.51 156.867 329.589 156.898 329.703C156.935 329.818 156.953 329.984 156.953 330.203C156.953 330.422 156.935 330.589 156.898 330.703C156.867 330.818 156.818 330.896 156.75 330.938C156.682 330.979 156.586 331 156.461 331H151.133C151.008 331 150.911 330.979 150.844 330.938C150.776 330.896 150.724 330.818 150.688 330.703C150.656 330.589 150.641 330.422 150.641 330.203C150.641 329.984 150.656 329.818 150.688 329.703C150.724 329.589 150.776 329.51 150.844 329.469C150.911 329.422 151.008 329.398 151.133 329.398H152.82V323.406H151.406V325.531C151.406 325.703 151.333 325.828 151.188 325.906C151.047 325.984 150.828 326.023 150.531 326.023C150.245 326.023 150.044 325.987 149.93 325.914C149.82 325.836 149.766 325.708 149.766 325.531V322.234C149.766 322.052 149.805 321.922 149.883 321.844C149.966 321.766 150.096 321.727 150.273 321.727H157.32ZM161.672 320.75C161.849 320.75 161.974 320.789 162.047 320.867C162.125 320.94 162.164 321.065 162.164 321.242V325.039C162.789 324.086 163.544 323.609 164.43 323.609C164.904 323.609 165.318 323.714 165.672 323.922C166.031 324.13 166.307 324.427 166.5 324.812C166.693 325.193 166.789 325.641 166.789 326.156V329.398H167.391C167.516 329.398 167.612 329.422 167.68 329.469C167.747 329.51 167.797 329.589 167.828 329.703C167.865 329.818 167.883 329.984 167.883 330.203C167.883 330.422 167.865 330.589 167.828 330.703C167.797 330.818 167.747 330.896 167.68 330.938C167.612 330.979 167.516 331 167.391 331H164.469C164.344 331 164.247 330.979 164.18 330.938C164.112 330.896 164.06 330.818 164.023 330.703C163.992 330.589 163.977 330.422 163.977 330.203C163.977 329.984 163.992 329.818 164.023 329.703C164.06 329.589 164.112 329.51 164.18 329.469C164.247 329.422 164.344 329.398 164.469 329.398H164.836V326.617C164.836 326.211 164.766 325.904 164.625 325.695C164.484 325.487 164.25 325.383 163.922 325.383C163.62 325.383 163.333 325.51 163.062 325.766C162.792 326.016 162.573 326.352 162.406 326.773C162.245 327.195 162.164 327.646 162.164 328.125V329.398H162.531C162.656 329.398 162.753 329.422 162.82 329.469C162.888 329.51 162.938 329.589 162.969 329.703C163.005 329.818 163.023 329.984 163.023 330.203C163.023 330.422 163.005 330.589 162.969 330.703C162.938 330.818 162.888 330.896 162.82 330.938C162.753 330.979 162.656 331 162.531 331H159.609C159.484 331 159.388 330.979 159.32 330.938C159.253 330.896 159.201 330.818 159.164 330.703C159.133 330.589 159.117 330.422 159.117 330.203C159.117 329.984 159.133 329.818 159.164 329.703C159.201 329.589 159.253 329.51 159.32 329.469C159.388 329.422 159.484 329.398 159.609 329.398H160.211V322.352H159.453C159.328 322.352 159.232 322.331 159.164 322.289C159.096 322.247 159.044 322.169 159.008 322.055C158.977 321.94 158.961 321.773 158.961 321.555C158.961 321.336 158.977 321.169 159.008 321.055C159.044 320.94 159.096 320.862 159.164 320.82C159.232 320.773 159.328 320.75 159.453 320.75H161.672ZM173.094 323.609C173.885 323.609 174.56 323.781 175.117 324.125C175.674 324.464 176.094 324.938 176.375 325.547C176.661 326.151 176.805 326.844 176.805 327.625C176.805 327.802 176.766 327.927 176.688 328C176.615 328.073 176.49 328.109 176.312 328.109H171.297C171.396 328.526 171.607 328.846 171.93 329.07C172.258 329.289 172.672 329.398 173.172 329.398C173.979 329.398 174.854 329.255 175.797 328.969C175.859 328.948 175.922 328.938 175.984 328.938C176.099 328.938 176.198 328.99 176.281 329.094C176.365 329.198 176.44 329.375 176.508 329.625C176.56 329.818 176.586 329.982 176.586 330.117C176.586 330.253 176.555 330.359 176.492 330.438C176.435 330.51 176.339 330.57 176.203 330.617C175.682 330.789 175.151 330.924 174.609 331.023C174.068 331.122 173.536 331.172 173.016 331.172C172.224 331.172 171.542 331.01 170.969 330.688C170.396 330.365 169.958 329.919 169.656 329.352C169.359 328.779 169.211 328.125 169.211 327.391C169.211 326.661 169.367 326.01 169.68 325.438C169.992 324.865 170.443 324.417 171.031 324.094C171.62 323.771 172.307 323.609 173.094 323.609ZM173.094 325.383C172.141 325.383 171.552 325.784 171.328 326.586H174.766C174.677 326.206 174.487 325.911 174.195 325.703C173.909 325.49 173.542 325.383 173.094 325.383ZM194.992 321.727C195.117 321.727 195.214 321.75 195.281 321.797C195.349 321.839 195.398 321.917 195.43 322.031C195.466 322.146 195.484 322.312 195.484 322.531C195.484 322.75 195.466 322.917 195.43 323.031C195.398 323.146 195.349 323.224 195.281 323.266C195.214 323.307 195.117 323.328 194.992 323.328H193.148V329.398H195.148C195.273 329.398 195.37 329.422 195.438 329.469C195.505 329.51 195.555 329.589 195.586 329.703C195.622 329.818 195.641 329.984 195.641 330.203C195.641 330.422 195.622 330.589 195.586 330.703C195.555 330.818 195.505 330.896 195.438 330.938C195.37 330.979 195.273 331 195.148 331H189.195C189.07 331 188.974 330.979 188.906 330.938C188.839 330.896 188.786 330.818 188.75 330.703C188.719 330.589 188.703 330.422 188.703 330.203C188.703 329.984 188.719 329.818 188.75 329.703C188.786 329.589 188.839 329.51 188.906 329.469C188.974 329.422 189.07 329.398 189.195 329.398H191.195V323.328H189.352C189.227 323.328 189.13 323.307 189.062 323.266C188.995 323.224 188.943 323.146 188.906 323.031C188.875 322.917 188.859 322.75 188.859 322.531C188.859 322.312 188.875 322.146 188.906 322.031C188.943 321.917 188.995 321.839 189.062 321.797C189.13 321.75 189.227 321.727 189.352 321.727H194.992ZM202.883 323.609C203.357 323.609 203.771 323.714 204.125 323.922C204.484 324.13 204.76 324.427 204.953 324.812C205.146 325.193 205.242 325.641 205.242 326.156V329.398H205.844C205.969 329.398 206.065 329.422 206.133 329.469C206.201 329.51 206.25 329.589 206.281 329.703C206.318 329.818 206.336 329.984 206.336 330.203C206.336 330.422 206.318 330.589 206.281 330.703C206.25 330.818 206.201 330.896 206.133 330.938C206.065 330.979 205.969 331 205.844 331H202.922C202.797 331 202.701 330.979 202.633 330.938C202.565 330.896 202.513 330.818 202.477 330.703C202.445 330.589 202.43 330.422 202.43 330.203C202.43 329.984 202.445 329.818 202.477 329.703C202.513 329.589 202.565 329.51 202.633 329.469C202.701 329.422 202.797 329.398 202.922 329.398H203.289V326.617C203.289 326.211 203.219 325.904 203.078 325.695C202.938 325.487 202.703 325.383 202.375 325.383C202.073 325.383 201.786 325.51 201.516 325.766C201.245 326.016 201.026 326.352 200.859 326.773C200.698 327.195 200.617 327.646 200.617 328.125V329.398H200.984C201.109 329.398 201.206 329.422 201.273 329.469C201.341 329.51 201.391 329.589 201.422 329.703C201.458 329.818 201.477 329.984 201.477 330.203C201.477 330.422 201.458 330.589 201.422 330.703C201.391 330.818 201.341 330.896 201.273 330.938C201.206 330.979 201.109 331 200.984 331H198.062C197.938 331 197.841 330.979 197.773 330.938C197.706 330.896 197.654 330.818 197.617 330.703C197.586 330.589 197.57 330.422 197.57 330.203C197.57 329.984 197.586 329.818 197.617 329.703C197.654 329.589 197.706 329.51 197.773 329.469C197.841 329.422 197.938 329.398 198.062 329.398H198.664V325.383H197.906C197.781 325.383 197.685 325.362 197.617 325.32C197.549 325.279 197.497 325.201 197.461 325.086C197.43 324.971 197.414 324.805 197.414 324.586C197.414 324.367 197.43 324.201 197.461 324.086C197.497 323.971 197.549 323.893 197.617 323.852C197.685 323.805 197.781 323.781 197.906 323.781H199.812C199.99 323.781 200.115 323.82 200.188 323.898C200.266 323.971 200.305 324.096 200.305 324.273V325.406C200.992 324.208 201.852 323.609 202.883 323.609ZM210.352 321.555C210.596 321.555 210.784 321.573 210.914 321.609C211.049 321.641 211.143 321.69 211.195 321.758C211.247 321.826 211.273 321.922 211.273 322.047V324.25H214.172C214.354 324.25 214.482 324.31 214.555 324.43C214.628 324.549 214.664 324.771 214.664 325.094C214.664 325.417 214.628 325.638 214.555 325.758C214.482 325.872 214.354 325.93 214.172 325.93H211.273V328.102C211.273 328.966 211.609 329.398 212.281 329.398C212.521 329.398 212.799 329.346 213.117 329.242C213.44 329.133 213.815 328.982 214.242 328.789C214.357 328.742 214.448 328.719 214.516 328.719C214.625 328.719 214.727 328.766 214.82 328.859C214.914 328.948 215.003 329.096 215.086 329.305C215.18 329.539 215.227 329.729 215.227 329.875C215.227 329.99 215.198 330.086 215.141 330.164C215.089 330.237 215.008 330.302 214.898 330.359C213.826 330.901 212.896 331.172 212.109 331.172C211.203 331.172 210.51 330.919 210.031 330.414C209.557 329.909 209.32 329.172 209.32 328.203V325.93H207.812C207.63 325.93 207.503 325.872 207.43 325.758C207.357 325.638 207.32 325.417 207.32 325.094C207.32 324.771 207.357 324.549 207.43 324.43C207.503 324.31 207.63 324.25 207.812 324.25H209.32V322.047C209.32 321.87 209.398 321.745 209.555 321.672C209.716 321.594 209.982 321.555 210.352 321.555ZM221.062 323.609C221.854 323.609 222.529 323.781 223.086 324.125C223.643 324.464 224.062 324.938 224.344 325.547C224.63 326.151 224.773 326.844 224.773 327.625C224.773 327.802 224.734 327.927 224.656 328C224.583 328.073 224.458 328.109 224.281 328.109H219.266C219.365 328.526 219.576 328.846 219.898 329.07C220.227 329.289 220.641 329.398 221.141 329.398C221.948 329.398 222.823 329.255 223.766 328.969C223.828 328.948 223.891 328.938 223.953 328.938C224.068 328.938 224.167 328.99 224.25 329.094C224.333 329.198 224.409 329.375 224.477 329.625C224.529 329.818 224.555 329.982 224.555 330.117C224.555 330.253 224.523 330.359 224.461 330.438C224.404 330.51 224.307 330.57 224.172 330.617C223.651 330.789 223.12 330.924 222.578 331.023C222.036 331.122 221.505 331.172 220.984 331.172C220.193 331.172 219.51 331.01 218.938 330.688C218.365 330.365 217.927 329.919 217.625 329.352C217.328 328.779 217.18 328.125 217.18 327.391C217.18 326.661 217.336 326.01 217.648 325.438C217.961 324.865 218.411 324.417 219 324.094C219.589 323.771 220.276 323.609 221.062 323.609ZM221.062 325.383C220.109 325.383 219.521 325.784 219.297 326.586H222.734C222.646 326.206 222.456 325.911 222.164 325.703C221.878 325.49 221.51 325.383 221.062 325.383ZM232.992 323.609C233.435 323.609 233.852 323.755 234.242 324.047C234.471 324.214 234.586 324.432 234.586 324.703C234.586 324.875 234.539 325.078 234.445 325.312C234.352 325.547 234.245 325.724 234.125 325.844C234.01 325.964 233.888 326.023 233.758 326.023C233.685 326.023 233.607 326.003 233.523 325.961C233.232 325.799 232.93 325.719 232.617 325.719C232.216 325.719 231.841 325.846 231.492 326.102C231.143 326.357 230.862 326.708 230.648 327.156C230.44 327.604 230.336 328.104 230.336 328.656V329.398H232.578C232.703 329.398 232.799 329.422 232.867 329.469C232.935 329.51 232.984 329.589 233.016 329.703C233.052 329.818 233.07 329.984 233.07 330.203C233.07 330.422 233.052 330.589 233.016 330.703C232.984 330.818 232.935 330.896 232.867 330.938C232.799 330.979 232.703 331 232.578 331H227.234C227.109 331 227.013 330.979 226.945 330.938C226.878 330.896 226.826 330.818 226.789 330.703C226.758 330.589 226.742 330.422 226.742 330.203C226.742 329.984 226.758 329.818 226.789 329.703C226.826 329.589 226.878 329.51 226.945 329.469C227.013 329.422 227.109 329.398 227.234 329.398H228.383V325.383H227.469C227.344 325.383 227.247 325.362 227.18 325.32C227.112 325.279 227.06 325.201 227.023 325.086C226.992 324.971 226.977 324.805 226.977 324.586C226.977 324.367 226.992 324.201 227.023 324.086C227.06 323.971 227.112 323.893 227.18 323.852C227.247 323.805 227.344 323.781 227.469 323.781H229.609C229.786 323.781 229.911 323.82 229.984 323.898C230.062 323.971 230.102 324.096 230.102 324.273V325.969C230.492 325.214 230.94 324.633 231.445 324.227C231.956 323.815 232.471 323.609 232.992 323.609ZM241.258 323.609C241.732 323.609 242.146 323.714 242.5 323.922C242.859 324.13 243.135 324.427 243.328 324.812C243.521 325.193 243.617 325.641 243.617 326.156V329.398H244.219C244.344 329.398 244.44 329.422 244.508 329.469C244.576 329.51 244.625 329.589 244.656 329.703C244.693 329.818 244.711 329.984 244.711 330.203C244.711 330.422 244.693 330.589 244.656 330.703C244.625 330.818 244.576 330.896 244.508 330.938C244.44 330.979 244.344 331 244.219 331H241.297C241.172 331 241.076 330.979 241.008 330.938C240.94 330.896 240.888 330.818 240.852 330.703C240.82 330.589 240.805 330.422 240.805 330.203C240.805 329.984 240.82 329.818 240.852 329.703C240.888 329.589 240.94 329.51 241.008 329.469C241.076 329.422 241.172 329.398 241.297 329.398H241.664V326.617C241.664 326.211 241.594 325.904 241.453 325.695C241.312 325.487 241.078 325.383 240.75 325.383C240.448 325.383 240.161 325.51 239.891 325.766C239.62 326.016 239.401 326.352 239.234 326.773C239.073 327.195 238.992 327.646 238.992 328.125V329.398H239.359C239.484 329.398 239.581 329.422 239.648 329.469C239.716 329.51 239.766 329.589 239.797 329.703C239.833 329.818 239.852 329.984 239.852 330.203C239.852 330.422 239.833 330.589 239.797 330.703C239.766 330.818 239.716 330.896 239.648 330.938C239.581 330.979 239.484 331 239.359 331H236.438C236.312 331 236.216 330.979 236.148 330.938C236.081 330.896 236.029 330.818 235.992 330.703C235.961 330.589 235.945 330.422 235.945 330.203C235.945 329.984 235.961 329.818 235.992 329.703C236.029 329.589 236.081 329.51 236.148 329.469C236.216 329.422 236.312 329.398 236.438 329.398H237.039V325.383H236.281C236.156 325.383 236.06 325.362 235.992 325.32C235.924 325.279 235.872 325.201 235.836 325.086C235.805 324.971 235.789 324.805 235.789 324.586C235.789 324.367 235.805 324.201 235.836 324.086C235.872 323.971 235.924 323.893 235.992 323.852C236.06 323.805 236.156 323.781 236.281 323.781H238.188C238.365 323.781 238.49 323.82 238.562 323.898C238.641 323.971 238.68 324.096 238.68 324.273V325.406C239.367 324.208 240.227 323.609 241.258 323.609ZM249.844 323.609C250.635 323.609 251.31 323.781 251.867 324.125C252.424 324.464 252.844 324.938 253.125 325.547C253.411 326.151 253.555 326.844 253.555 327.625C253.555 327.802 253.516 327.927 253.438 328C253.365 328.073 253.24 328.109 253.062 328.109H248.047C248.146 328.526 248.357 328.846 248.68 329.07C249.008 329.289 249.422 329.398 249.922 329.398C250.729 329.398 251.604 329.255 252.547 328.969C252.609 328.948 252.672 328.938 252.734 328.938C252.849 328.938 252.948 328.99 253.031 329.094C253.115 329.198 253.19 329.375 253.258 329.625C253.31 329.818 253.336 329.982 253.336 330.117C253.336 330.253 253.305 330.359 253.242 330.438C253.185 330.51 253.089 330.57 252.953 330.617C252.432 330.789 251.901 330.924 251.359 331.023C250.818 331.122 250.286 331.172 249.766 331.172C248.974 331.172 248.292 331.01 247.719 330.688C247.146 330.365 246.708 329.919 246.406 329.352C246.109 328.779 245.961 328.125 245.961 327.391C245.961 326.661 246.117 326.01 246.43 325.438C246.742 324.865 247.193 324.417 247.781 324.094C248.37 323.771 249.057 323.609 249.844 323.609ZM249.844 325.383C248.891 325.383 248.302 325.784 248.078 326.586H251.516C251.427 326.206 251.237 325.911 250.945 325.703C250.659 325.49 250.292 325.383 249.844 325.383ZM258.32 321.555C258.565 321.555 258.753 321.573 258.883 321.609C259.018 321.641 259.112 321.69 259.164 321.758C259.216 321.826 259.242 321.922 259.242 322.047V324.25H262.141C262.323 324.25 262.451 324.31 262.523 324.43C262.596 324.549 262.633 324.771 262.633 325.094C262.633 325.417 262.596 325.638 262.523 325.758C262.451 325.872 262.323 325.93 262.141 325.93H259.242V328.102C259.242 328.966 259.578 329.398 260.25 329.398C260.49 329.398 260.768 329.346 261.086 329.242C261.409 329.133 261.784 328.982 262.211 328.789C262.326 328.742 262.417 328.719 262.484 328.719C262.594 328.719 262.695 328.766 262.789 328.859C262.883 328.948 262.971 329.096 263.055 329.305C263.148 329.539 263.195 329.729 263.195 329.875C263.195 329.99 263.167 330.086 263.109 330.164C263.057 330.237 262.977 330.302 262.867 330.359C261.794 330.901 260.865 331.172 260.078 331.172C259.172 331.172 258.479 330.919 258 330.414C257.526 329.909 257.289 329.172 257.289 328.203V325.93H255.781C255.599 325.93 255.471 325.872 255.398 325.758C255.326 325.638 255.289 325.417 255.289 325.094C255.289 324.771 255.326 324.549 255.398 324.43C255.471 324.31 255.599 324.25 255.781 324.25H257.289V322.047C257.289 321.87 257.367 321.745 257.523 321.672C257.685 321.594 257.951 321.555 258.32 321.555Z" fill="black"/>
<rect x="148" y="1" width="117" height="197" fill="#F7DF1E"/>
<path d="M209.855 148.27C210.418 148.27 210.852 148.375 211.156 148.586C211.461 148.773 211.684 149.125 211.824 149.641C211.988 150.156 212.07 150.906 212.07 151.891C212.07 152.875 211.988 153.625 211.824 154.141C211.684 154.656 211.461 155.008 211.156 155.195C210.852 155.383 210.418 155.477 209.855 155.477H203.316V177.238C203.316 181.738 202.051 185.125 199.52 187.398C196.988 189.648 193.273 190.773 188.375 190.773C182.891 190.773 178.332 189.051 174.699 185.605C174.324 185.23 174.137 184.645 174.137 183.848V172.457C174.137 171.66 174.488 171.098 175.191 170.77C175.918 170.418 177.113 170.242 178.777 170.242C179.879 170.242 180.723 170.324 181.309 170.488C181.918 170.629 182.34 170.852 182.574 171.156C182.809 171.461 182.926 171.895 182.926 172.457V181.598C184.543 182.395 186.488 182.793 188.762 182.793C190.684 182.793 192.125 182.289 193.086 181.281C194.047 180.25 194.527 178.668 194.527 176.535V155.477H183.77C183.207 155.477 182.773 155.383 182.469 155.195C182.164 155.008 181.93 154.656 181.766 154.141C181.625 153.625 181.555 152.875 181.555 151.891C181.555 150.906 181.625 150.156 181.766 149.641C181.93 149.125 182.164 148.773 182.469 148.586C182.773 148.375 183.207 148.27 183.77 148.27H209.855ZM246.031 147.496C247.531 147.496 248.598 147.672 249.23 148.023C249.863 148.352 250.18 148.914 250.18 149.711V159.344C250.18 160.141 249.922 160.715 249.406 161.066C248.914 161.395 248.094 161.559 246.945 161.559C246.172 161.559 245.562 161.465 245.117 161.277C244.672 161.09 244.32 160.809 244.062 160.434C242.961 158.699 241.543 157.363 239.809 156.426C238.074 155.465 236.07 154.984 233.797 154.984C232.086 154.984 230.738 155.418 229.754 156.285C228.793 157.152 228.312 158.277 228.312 159.66C228.312 160.34 228.523 160.902 228.945 161.348C229.367 161.77 229.977 162.145 230.773 162.473C231.805 162.871 233.574 163.281 236.082 163.703C238.52 164.172 240.512 164.617 242.059 165.039C243.605 165.438 245.059 166.059 246.418 166.902C250.168 169.176 252.043 172.844 252.043 177.906C252.043 180.484 251.492 182.734 250.391 184.656C249.312 186.578 247.684 188.078 245.504 189.156C243.324 190.234 240.641 190.773 237.453 190.773C233.539 190.773 230.223 189.59 227.504 187.223V188.559C227.504 189.355 227.211 189.918 226.625 190.246C226.062 190.598 225.043 190.773 223.566 190.773C222.066 190.773 221 190.598 220.367 190.246C219.734 189.918 219.418 189.355 219.418 188.559V176.816C219.418 176.02 219.664 175.457 220.156 175.129C220.672 174.777 221.504 174.602 222.652 174.602C223.473 174.602 224.117 174.707 224.586 174.918C225.078 175.129 225.453 175.492 225.711 176.008C226.977 178.422 228.488 180.238 230.246 181.457C232.004 182.676 234.055 183.285 236.398 183.285C238.461 183.285 240.031 182.863 241.109 182.02C242.188 181.176 242.727 180.004 242.727 178.504C242.727 177.566 242.48 176.781 241.988 176.148C241.52 175.492 240.828 174.941 239.914 174.496C239.164 174.121 238.332 173.816 237.418 173.582C236.527 173.348 235.203 173.043 233.445 172.668C231.43 172.246 229.766 171.859 228.453 171.508C227.141 171.156 225.91 170.676 224.762 170.066C222.98 169.129 221.586 167.887 220.578 166.34C219.57 164.77 219.066 162.742 219.066 160.258C219.066 157.773 219.641 155.57 220.789 153.648C221.938 151.703 223.543 150.191 225.605 149.113C227.691 148.035 230.07 147.496 232.742 147.496C234.617 147.496 236.352 147.801 237.945 148.41C239.539 149.02 240.922 149.887 242.094 151.012V149.711C242.094 148.914 242.375 148.352 242.938 148.023C243.523 147.672 244.555 147.496 246.031 147.496Z" fill="black"/>
<path d="M247.922 294.75C248.099 294.75 248.224 294.789 248.297 294.867C248.375 294.94 248.414 295.065 248.414 295.242V298.531C248.68 298.234 248.987 298.008 249.336 297.852C249.685 297.69 250.062 297.609 250.469 297.609C251.151 297.609 251.747 297.776 252.258 298.109C252.768 298.443 253.159 298.896 253.43 299.469C253.701 300.042 253.836 300.682 253.836 301.391C253.836 302.099 253.701 302.74 253.43 303.312C253.159 303.885 252.768 304.339 252.258 304.672C251.747 305.005 251.151 305.172 250.469 305.172C249.974 305.172 249.523 305.057 249.117 304.828C248.711 304.594 248.372 304.268 248.102 303.852V304.508C248.102 304.685 248.062 304.812 247.984 304.891C247.911 304.964 247.786 305 247.609 305H245.859C245.734 305 245.638 304.979 245.57 304.938C245.503 304.891 245.451 304.81 245.414 304.695C245.383 304.581 245.367 304.414 245.367 304.195C245.367 303.977 245.383 303.81 245.414 303.695C245.451 303.581 245.503 303.503 245.57 303.461C245.638 303.419 245.734 303.398 245.859 303.398H246.461V296.352H245.703C245.578 296.352 245.482 296.331 245.414 296.289C245.346 296.247 245.294 296.169 245.258 296.055C245.227 295.94 245.211 295.773 245.211 295.555C245.211 295.336 245.227 295.169 245.258 295.055C245.294 294.94 245.346 294.862 245.414 294.82C245.482 294.773 245.578 294.75 245.703 294.75H247.922ZM250.156 299.383C249.823 299.383 249.521 299.461 249.25 299.617C248.979 299.773 248.763 300.005 248.602 300.312C248.44 300.615 248.359 300.974 248.359 301.391C248.359 301.807 248.44 302.169 248.602 302.477C248.763 302.779 248.979 303.008 249.25 303.164C249.521 303.32 249.823 303.398 250.156 303.398C250.479 303.398 250.76 303.318 251 303.156C251.24 302.99 251.422 302.755 251.547 302.453C251.677 302.151 251.742 301.797 251.742 301.391C251.742 300.984 251.677 300.63 251.547 300.328C251.422 300.026 251.24 299.794 251 299.633C250.76 299.466 250.479 299.383 250.156 299.383ZM263.383 297.781C263.508 297.781 263.604 297.805 263.672 297.852C263.74 297.893 263.789 297.971 263.82 298.086C263.857 298.201 263.875 298.367 263.875 298.586C263.875 298.805 263.857 298.971 263.82 299.086C263.789 299.201 263.74 299.279 263.672 299.32C263.604 299.362 263.508 299.383 263.383 299.383H262.883L259.891 305.445C259.526 306.18 259.177 306.737 258.844 307.117C258.516 307.503 258.138 307.773 257.711 307.93C257.289 308.091 256.742 308.182 256.07 308.203C255.883 308.208 255.74 308.138 255.641 307.992C255.547 307.846 255.5 307.581 255.5 307.195C255.5 306.93 255.534 306.74 255.602 306.625C255.674 306.51 255.776 306.448 255.906 306.438C256.318 306.411 256.651 306.333 256.906 306.203C257.167 306.073 257.401 305.865 257.609 305.578C257.823 305.297 258.078 304.87 258.375 304.297L255.984 299.383H255.398C255.273 299.383 255.177 299.362 255.109 299.32C255.042 299.279 254.99 299.201 254.953 299.086C254.922 298.971 254.906 298.805 254.906 298.586C254.906 298.367 254.922 298.201 254.953 298.086C254.99 297.971 255.042 297.893 255.109 297.852C255.177 297.805 255.273 297.781 255.398 297.781H258.555C258.68 297.781 258.776 297.805 258.844 297.852C258.911 297.893 258.961 297.971 258.992 298.086C259.029 298.201 259.047 298.367 259.047 298.586C259.047 298.805 259.029 298.971 258.992 299.086C258.961 299.201 258.911 299.279 258.844 299.32C258.776 299.362 258.68 299.383 258.555 299.383H258.086L259.445 302.352L260.805 299.383H260.383C260.258 299.383 260.161 299.362 260.094 299.32C260.026 299.279 259.974 299.201 259.938 299.086C259.906 298.971 259.891 298.805 259.891 298.586C259.891 298.367 259.906 298.201 259.938 298.086C259.974 297.971 260.026 297.893 260.094 297.852C260.161 297.805 260.258 297.781 260.383 297.781H263.383Z" fill="black"/>
</svg>
